<mxfile modified="2023-01-26T15:52:50.263Z" host="app.diagrams.net" agent="5.0 (Macintosh)" etag="mdZ4oJZW-VGXXIkHHYOt" version="20.8.11" type="github">
  <diagram id="Ht1M8jgEwFfnCIfOTk4-" name="Page-1">
    <mxGraphModel dx="1434" dy="678" grid="1" gridSize="10" guides="1" tooltips="1" connect="1" arrows="1" fold="1" page="1" pageScale="1" pageWidth="1169" pageHeight="827" background="#000000" math="0" shadow="0">
      <root>
        <mxCell id="0" />
        <mxCell id="1" parent="0" />
        <mxCell id="zLqFnhN9I1rzCWaggQR7-6" value="" style="edgeStyle=orthogonalEdgeStyle;rounded=0;orthogonalLoop=1;jettySize=auto;html=1;startArrow=none;fontColor=#FFFFFF;" parent="1" source="4QRxjfR1u28q5DTtSrSD-2" target="4QRxjfR1u28q5DTtSrSD-5" edge="1">
          <mxGeometry relative="1" as="geometry" />
        </mxCell>
        <object label="" id="4QRxjfR1u28q5DTtSrSD-1">
          <mxCell style="aspect=fixed;html=1;points=[];align=center;image;fontSize=12;image=img/lib/azure2/networking/DNS_Zones.svg;fontColor=#FFFFFF;" parent="1" vertex="1">
            <mxGeometry x="29" y="16" width="64" height="64" as="geometry" />
          </mxCell>
        </object>
        <mxCell id="zLqFnhN9I1rzCWaggQR7-1" value="" style="edgeStyle=orthogonalEdgeStyle;rounded=0;orthogonalLoop=1;jettySize=auto;html=1;fontColor=#FFFFFF;labelBorderColor=#FFFFFF;strokeColor=#FFFFFF;" parent="1" source="4QRxjfR1u28q5DTtSrSD-5" target="4QRxjfR1u28q5DTtSrSD-58" edge="1">
          <mxGeometry relative="1" as="geometry" />
        </mxCell>
        <mxCell id="4QRxjfR1u28q5DTtSrSD-5" value="" style="sketch=0;outlineConnect=0;fillColor=#d5e8d4;strokeColor=none;dashed=0;verticalLabelPosition=bottom;verticalAlign=top;align=center;html=1;fontSize=12;fontStyle=0;aspect=fixed;pointerEvents=1;shape=mxgraph.aws4.users;gradientColor=#97d077;fontColor=#FFFFFF;" parent="1" vertex="1">
          <mxGeometry x="28" y="179" width="66" height="66" as="geometry" />
        </mxCell>
        <mxCell id="4QRxjfR1u28q5DTtSrSD-48" value="" style="edgeStyle=orthogonalEdgeStyle;rounded=0;orthogonalLoop=1;jettySize=auto;html=1;fontFamily=Tahoma;fontSize=15;fontColor=#FFFFFF;startArrow=none;strokeColor=#FFFFFF;" parent="1" source="4QRxjfR1u28q5DTtSrSD-55" target="4QRxjfR1u28q5DTtSrSD-9" edge="1">
          <mxGeometry relative="1" as="geometry" />
        </mxCell>
        <mxCell id="4QRxjfR1u28q5DTtSrSD-8" value="" style="rounded=1;whiteSpace=wrap;html=1;dashed=1;fillColor=none;strokeColor=#f53e10;strokeWidth=3;fontColor=#FFFFFF;" parent="1" vertex="1">
          <mxGeometry x="230" y="94.06" width="260" height="235.87" as="geometry" />
        </mxCell>
        <mxCell id="4QRxjfR1u28q5DTtSrSD-52" style="edgeStyle=orthogonalEdgeStyle;rounded=0;orthogonalLoop=1;jettySize=auto;html=1;entryX=0;entryY=0.5;entryDx=0;entryDy=0;entryPerimeter=0;fontFamily=Tahoma;fontSize=15;fontColor=#FFFFFF;strokeColor=#FFFFFF;" parent="1" source="4QRxjfR1u28q5DTtSrSD-9" target="4QRxjfR1u28q5DTtSrSD-42" edge="1">
          <mxGeometry relative="1" as="geometry">
            <Array as="points">
              <mxPoint x="990" y="177" />
              <mxPoint x="990" y="314" />
            </Array>
          </mxGeometry>
        </mxCell>
        <mxCell id="JdfW3q7XRRElJC6JKNPO-4" style="edgeStyle=orthogonalEdgeStyle;rounded=0;orthogonalLoop=1;jettySize=auto;html=1;fontColor=#FFFFFF;strokeColor=#FFFFFF;" parent="1" source="4QRxjfR1u28q5DTtSrSD-9" target="JdfW3q7XRRElJC6JKNPO-2" edge="1">
          <mxGeometry relative="1" as="geometry">
            <Array as="points">
              <mxPoint x="990" y="177" />
              <mxPoint x="990" y="75" />
            </Array>
          </mxGeometry>
        </mxCell>
        <mxCell id="4QRxjfR1u28q5DTtSrSD-9" value="" style="whiteSpace=wrap;html=1;aspect=fixed;strokeColor=#fc7a2c;strokeWidth=3;perimeterSpacing=0;fontSize=7;fillColor=none;fontColor=#FFFFFF;" parent="1" vertex="1">
          <mxGeometry x="636.41" y="33.87" width="286.13" height="286.13" as="geometry" />
        </mxCell>
        <mxCell id="4QRxjfR1u28q5DTtSrSD-31" value="" style="whiteSpace=wrap;html=1;aspect=fixed;strokeColor=#fc7a2c;strokeWidth=3;perimeterSpacing=0;fillColor=none;fontColor=#FFFFFF;" parent="1" vertex="1">
          <mxGeometry x="527.5" y="410" width="400" height="400" as="geometry" />
        </mxCell>
        <mxCell id="4QRxjfR1u28q5DTtSrSD-30" value="" style="sketch=0;outlineConnect=0;fontColor=#FFFFFF;gradientColor=none;fillColor=#4D27AA;strokeColor=none;dashed=0;verticalLabelPosition=bottom;verticalAlign=top;align=center;html=1;fontSize=12;fontStyle=0;aspect=fixed;pointerEvents=1;shape=mxgraph.aws4.application_load_balancer;" parent="1" vertex="1">
          <mxGeometry x="308.01" y="164.06" width="95.94" height="95.94" as="geometry" />
        </mxCell>
        <mxCell id="4QRxjfR1u28q5DTtSrSD-24" value="" style="sketch=0;points=[[0,0,0],[0.25,0,0],[0.5,0,0],[0.75,0,0],[1,0,0],[0,1,0],[0.25,1,0],[0.5,1,0],[0.75,1,0],[1,1,0],[0,0.25,0],[0,0.5,0],[0,0.75,0],[1,0.25,0],[1,0.5,0],[1,0.75,0]];outlineConnect=0;fontColor=#FFFFFF;gradientColor=#F78E04;gradientDirection=north;fillColor=#D05C17;strokeColor=#000000;dashed=0;verticalLabelPosition=bottom;verticalAlign=top;align=center;html=1;fontSize=12;fontStyle=0;aspect=fixed;shape=mxgraph.aws4.resourceIcon;resIcon=mxgraph.aws4.ec2;" parent="1" vertex="1">
          <mxGeometry x="745.75" y="144.06" width="65.5" height="65.5" as="geometry" />
        </mxCell>
        <mxCell id="4QRxjfR1u28q5DTtSrSD-26" value="" style="sketch=0;points=[[0,0,0],[0.25,0,0],[0.5,0,0],[0.75,0,0],[1,0,0],[0,1,0],[0.25,1,0],[0.5,1,0],[0.75,1,0],[1,1,0],[0,0.25,0],[0,0.5,0],[0,0.75,0],[1,0.25,0],[1,0.5,0],[1,0.75,0]];outlineConnect=0;fontColor=#FFFFFF;gradientColor=#F78E04;gradientDirection=north;fillColor=#D05C17;strokeColor=none;dashed=0;verticalLabelPosition=bottom;verticalAlign=top;align=center;html=1;fontSize=12;fontStyle=0;aspect=fixed;shape=mxgraph.aws4.resourceIcon;resIcon=mxgraph.aws4.ec2;" parent="1" vertex="1">
          <mxGeometry x="737.79" y="510" width="65.5" height="65.5" as="geometry" />
        </mxCell>
        <mxCell id="4QRxjfR1u28q5DTtSrSD-27" value="" style="sketch=0;points=[[0,0,0],[0.25,0,0],[0.5,0,0],[0.75,0,0],[1,0,0],[0,1,0],[0.25,1,0],[0.5,1,0],[0.75,1,0],[1,1,0],[0,0.25,0],[0,0.5,0],[0,0.75,0],[1,0.25,0],[1,0.5,0],[1,0.75,0]];outlineConnect=0;fontColor=#FFFFFF;gradientColor=#F78E04;gradientDirection=north;fillColor=#D05C17;strokeColor=none;dashed=0;verticalLabelPosition=bottom;verticalAlign=top;align=center;html=1;fontSize=12;fontStyle=0;aspect=fixed;shape=mxgraph.aws4.resourceIcon;resIcon=mxgraph.aws4.ec2;" parent="1" vertex="1">
          <mxGeometry x="629.04" y="510" width="65.5" height="65.5" as="geometry" />
        </mxCell>
        <mxCell id="4QRxjfR1u28q5DTtSrSD-29" value="" style="sketch=0;points=[[0,0,0],[0.25,0,0],[0.5,0,0],[0.75,0,0],[1,0,0],[0,1,0],[0.25,1,0],[0.5,1,0],[0.75,1,0],[1,1,0],[0,0.25,0],[0,0.5,0],[0,0.75,0],[1,0.25,0],[1,0.5,0],[1,0.75,0]];outlineConnect=0;fontColor=#FFFFFF;gradientColor=#F78E04;gradientDirection=north;fillColor=#D05C17;strokeColor=none;dashed=0;verticalLabelPosition=bottom;verticalAlign=top;align=center;html=1;fontSize=12;fontStyle=0;aspect=fixed;shape=mxgraph.aws4.resourceIcon;resIcon=mxgraph.aws4.ec2;" parent="1" vertex="1">
          <mxGeometry x="683.41" y="640" width="65.5" height="65.5" as="geometry" />
        </mxCell>
        <mxCell id="4QRxjfR1u28q5DTtSrSD-32" value="&lt;h3 style=&quot;font-size: 21px;&quot;&gt;&lt;font data-darkreader-inline-color=&quot;&quot; style=&quot;--darkreader-inline-color: #fc8239;&quot; color=&quot;#FC7A2C&quot;&gt;Security Group&lt;br style=&quot;font-size: 21px;&quot;&gt;&lt;/font&gt;&lt;/h3&gt;" style="text;html=1;strokeColor=none;fillColor=none;align=center;verticalAlign=middle;whiteSpace=wrap;rounded=0;fontSize=21;fontColor=#FFFFFF;" parent="1" vertex="1">
          <mxGeometry x="694.6199999999999" y="50" width="174.25" height="30" as="geometry" />
        </mxCell>
        <mxCell id="4QRxjfR1u28q5DTtSrSD-33" value="&lt;h3 style=&quot;font-size: 21px;&quot;&gt;&lt;font data-darkreader-inline-color=&quot;&quot; style=&quot;--darkreader-inline-color: #fc8239;&quot; color=&quot;#FC7A2C&quot;&gt;Security Group&lt;br style=&quot;font-size: 21px;&quot;&gt;&lt;/font&gt;&lt;/h3&gt;" style="text;html=1;strokeColor=none;fillColor=none;align=center;verticalAlign=middle;whiteSpace=wrap;rounded=0;fontSize=21;fontColor=#FFFFFF;" parent="1" vertex="1">
          <mxGeometry x="630" y="430" width="174.25" height="30" as="geometry" />
        </mxCell>
        <mxCell id="4QRxjfR1u28q5DTtSrSD-38" value="&lt;h3 style=&quot;font-size: 21px;&quot;&gt;&lt;font data-darkreader-inline-color=&quot;&quot; style=&quot;--darkreader-inline-color: #fc8239;&quot; color=&quot;#FC7A2C&quot;&gt;Security Group&lt;br style=&quot;font-size: 21px;&quot;&gt;&lt;/font&gt;&lt;/h3&gt;" style="text;html=1;strokeColor=none;fillColor=none;align=center;verticalAlign=middle;whiteSpace=wrap;rounded=0;fontSize=21;fontColor=#FFFFFF;" parent="1" vertex="1">
          <mxGeometry x="272.88" y="114.06" width="174.25" height="30" as="geometry" />
        </mxCell>
        <mxCell id="4QRxjfR1u28q5DTtSrSD-39" value="&lt;font data-darkreader-inline-color=&quot;&quot; style=&quot;font-size: 18px; --darkreader-inline-color: #e8e6e3;&quot;&gt;&lt;b&gt;&lt;font style=&quot;font-size: 18px;&quot;&gt;Application Load Balancer&lt;/font&gt;&lt;/b&gt;&lt;/font&gt;" style="text;html=1;strokeColor=none;fillColor=none;align=center;verticalAlign=middle;whiteSpace=wrap;rounded=0;fontColor=#FFFFFF;" parent="1" vertex="1">
          <mxGeometry x="245.01" y="270" width="230" height="30" as="geometry" />
        </mxCell>
        <mxCell id="4QRxjfR1u28q5DTtSrSD-41" value="&lt;h3 style=&quot;font-size: 18px;&quot;&gt;&lt;font data-darkreader-inline-color=&quot;&quot; style=&quot;--darkreader-inline-color: #e8e6e3;&quot;&gt;Users&lt;br&gt;&lt;/font&gt;&lt;/h3&gt;" style="text;html=1;strokeColor=none;fillColor=none;align=center;verticalAlign=middle;whiteSpace=wrap;rounded=0;fontColor=#FFFFFF;" parent="1" vertex="1">
          <mxGeometry x="16" y="250" width="90" height="30" as="geometry" />
        </mxCell>
        <mxCell id="4QRxjfR1u28q5DTtSrSD-50" value="" style="edgeStyle=orthogonalEdgeStyle;rounded=0;orthogonalLoop=1;jettySize=auto;html=1;fontFamily=Tahoma;fontSize=15;fontColor=#FFFFFF;startArrow=none;strokeColor=#FFFFFF;" parent="1" source="4QRxjfR1u28q5DTtSrSD-74" target="4QRxjfR1u28q5DTtSrSD-45" edge="1">
          <mxGeometry relative="1" as="geometry" />
        </mxCell>
        <mxCell id="4QRxjfR1u28q5DTtSrSD-42" value="" style="sketch=0;points=[[0,0,0],[0.25,0,0],[0.5,0,0],[0.75,0,0],[1,0,0],[0,1,0],[0.25,1,0],[0.5,1,0],[0.75,1,0],[1,1,0],[0,0.25,0],[0,0.5,0],[0,0.75,0],[1,0.25,0],[1,0.5,0],[1,0.75,0]];outlineConnect=0;fontColor=#FFFFFF;gradientColor=#945DF2;gradientDirection=north;fillColor=#5A30B5;strokeColor=none;dashed=0;verticalLabelPosition=bottom;verticalAlign=top;align=center;html=1;fontSize=12;fontStyle=0;aspect=fixed;shape=mxgraph.aws4.resourceIcon;resIcon=mxgraph.aws4.route_53;strokeWidth=3;fontFamily=Tahoma;" parent="1" vertex="1">
          <mxGeometry x="1050" y="280" width="68" height="68" as="geometry" />
        </mxCell>
        <mxCell id="4QRxjfR1u28q5DTtSrSD-45" value="" style="sketch=0;aspect=fixed;html=1;points=[];align=center;image;fontSize=12;image=img/lib/mscae/DNS_Private_Zones.svg;dashed=1;strokeColor=#000000;strokeWidth=3;fontFamily=Tahoma;fontColor=#FFFFFF;fillColor=#18141d;" parent="1" vertex="1">
          <mxGeometry x="1051" y="444" width="66" height="66" as="geometry" />
        </mxCell>
        <mxCell id="4QRxjfR1u28q5DTtSrSD-53" value="" style="outlineConnect=0;dashed=0;verticalLabelPosition=bottom;verticalAlign=top;align=center;html=1;shape=mxgraph.aws3.certificate;fillColor=#5294CF;gradientColor=none;strokeColor=#000000;strokeWidth=3;fontFamily=Tahoma;fontSize=15;fontColor=#FFFFFF;" parent="1" vertex="1">
          <mxGeometry x="268.01" y="184.24" width="40" height="55.5" as="geometry" />
        </mxCell>
        <mxCell id="4QRxjfR1u28q5DTtSrSD-56" value="" style="edgeStyle=orthogonalEdgeStyle;rounded=0;orthogonalLoop=1;jettySize=auto;html=1;fontFamily=Tahoma;fontSize=15;fontColor=#FFFFFF;endArrow=none;" parent="1" source="4QRxjfR1u28q5DTtSrSD-8" target="4QRxjfR1u28q5DTtSrSD-55" edge="1">
          <mxGeometry relative="1" as="geometry">
            <mxPoint x="230" y="212" as="sourcePoint" />
            <mxPoint x="94" y="212" as="targetPoint" />
          </mxGeometry>
        </mxCell>
        <mxCell id="4QRxjfR1u28q5DTtSrSD-57" value="" style="edgeStyle=orthogonalEdgeStyle;rounded=0;orthogonalLoop=1;jettySize=auto;html=1;fontFamily=Tahoma;fontSize=15;fontColor=#FFFFFF;endArrow=none;strokeColor=#FFFFFF;" parent="1" source="4QRxjfR1u28q5DTtSrSD-8" target="4QRxjfR1u28q5DTtSrSD-55" edge="1">
          <mxGeometry relative="1" as="geometry">
            <mxPoint x="490" y="212" as="sourcePoint" />
            <mxPoint x="630" y="167.41176470588243" as="targetPoint" />
          </mxGeometry>
        </mxCell>
        <mxCell id="4QRxjfR1u28q5DTtSrSD-55" value="&lt;h3 style=&quot;font-size: 15px;&quot;&gt;&lt;font data-darkreader-inline-color=&quot;&quot; style=&quot;--darkreader-inline-color: #e8e6e3;&quot;&gt;HTTP 8080&lt;br&gt;&lt;/font&gt;&lt;/h3&gt;" style="text;html=1;strokeColor=none;fillColor=none;align=center;verticalAlign=middle;whiteSpace=wrap;rounded=0;fontColor=#FFFFFF;" parent="1" vertex="1">
          <mxGeometry x="525" y="197" width="60" height="30" as="geometry" />
        </mxCell>
        <mxCell id="zLqFnhN9I1rzCWaggQR7-2" value="" style="edgeStyle=orthogonalEdgeStyle;rounded=0;orthogonalLoop=1;jettySize=auto;html=1;fontColor=#FFFFFF;strokeColor=#FFFFFF;" parent="1" source="4QRxjfR1u28q5DTtSrSD-58" target="4QRxjfR1u28q5DTtSrSD-53" edge="1">
          <mxGeometry relative="1" as="geometry" />
        </mxCell>
        <mxCell id="4QRxjfR1u28q5DTtSrSD-58" value="&lt;h3 style=&quot;font-size: 15px;&quot;&gt;&lt;font data-darkreader-inline-color=&quot;&quot; style=&quot;--darkreader-inline-color: #e8e6e3;&quot;&gt;HTTPS&lt;/font&gt;&lt;br&gt;&lt;/h3&gt;" style="text;html=1;strokeColor=none;fillColor=none;align=center;verticalAlign=middle;whiteSpace=wrap;rounded=0;fontColor=#FFFFFF;" parent="1" vertex="1">
          <mxGeometry x="130" y="196.99" width="60" height="30" as="geometry" />
        </mxCell>
        <mxCell id="4QRxjfR1u28q5DTtSrSD-65" value="" style="rounded=1;whiteSpace=wrap;html=1;dashed=1;fillColor=none;strokeWidth=3;strokeColor=#606060;fontColor=#FFFFFF;" parent="1" vertex="1">
          <mxGeometry x="689.81" y="100" width="179.06" height="160" as="geometry" />
        </mxCell>
        <mxCell id="zLqFnhN9I1rzCWaggQR7-3" value="" style="edgeStyle=orthogonalEdgeStyle;rounded=0;orthogonalLoop=1;jettySize=auto;html=1;fontColor=#FFFFFF;strokeColor=#FFFFFF;" parent="1" source="4QRxjfR1u28q5DTtSrSD-68" target="4QRxjfR1u28q5DTtSrSD-31" edge="1">
          <mxGeometry relative="1" as="geometry" />
        </mxCell>
        <mxCell id="4QRxjfR1u28q5DTtSrSD-68" value="&lt;h3 style=&quot;font-size: 18px;&quot;&gt;&lt;font style=&quot;font-size: 18px;&quot;&gt;&lt;font data-darkreader-inline-color=&quot;&quot; style=&quot;--darkreader-inline-color: #e8e6e3;&quot;&gt;Auto scaling group&lt;/font&gt;&lt;br&gt;&lt;/font&gt;&lt;/h3&gt;" style="text;html=1;strokeColor=none;fillColor=none;align=center;verticalAlign=middle;whiteSpace=wrap;rounded=0;fontColor=#FFFFFF;" parent="1" vertex="1">
          <mxGeometry x="685.5899999999999" y="270" width="192.32" height="30" as="geometry" />
        </mxCell>
        <mxCell id="4QRxjfR1u28q5DTtSrSD-69" value="&lt;h3 style=&quot;font-size: 18px;&quot;&gt;&lt;font style=&quot;font-size: 18px;&quot;&gt;Auto scaling group&lt;br&gt;&lt;/font&gt;&lt;/h3&gt;" style="text;html=1;strokeColor=none;fillColor=none;align=center;verticalAlign=middle;whiteSpace=wrap;rounded=0;fontColor=#FFFFFF;" parent="1" vertex="1">
          <mxGeometry x="614.33" y="770" width="203.66" height="30" as="geometry" />
        </mxCell>
        <mxCell id="4QRxjfR1u28q5DTtSrSD-70" value="&lt;font data-darkreader-inline-color=&quot;&quot; style=&quot;font-size: 15px; --darkreader-inline-color: #e8e6e3;&quot;&gt;Tomcat Instances&lt;/font&gt;" style="text;html=1;strokeColor=none;fillColor=none;align=center;verticalAlign=middle;whiteSpace=wrap;rounded=0;fontStyle=1;fontColor=#FFFFFF;" parent="1" vertex="1">
          <mxGeometry x="708.18" y="220" width="142.32" height="30" as="geometry" />
        </mxCell>
        <mxCell id="4QRxjfR1u28q5DTtSrSD-71" value="&lt;div style=&quot;font-size: 15px;&quot;&gt;&lt;font data-darkreader-inline-color=&quot;&quot; style=&quot;font-size: 15px; --darkreader-inline-color: #e8e6e3;&quot;&gt;Rabbit MQ instances&lt;/font&gt;&lt;/div&gt;" style="text;html=1;strokeColor=none;fillColor=none;align=center;verticalAlign=middle;whiteSpace=wrap;rounded=0;fontStyle=1;fontColor=#FFFFFF;" parent="1" vertex="1">
          <mxGeometry x="588.66" y="595" width="142.32" height="30" as="geometry" />
        </mxCell>
        <mxCell id="4QRxjfR1u28q5DTtSrSD-72" value="&lt;div style=&quot;font-size: 15px;&quot;&gt;&lt;font style=&quot;font-size: 15px;&quot;&gt;Memcache&lt;/font&gt;&lt;/div&gt;&lt;div style=&quot;font-size: 15px;&quot;&gt;&lt;font style=&quot;font-size: 15px;&quot;&gt;&amp;nbsp;instances&lt;/font&gt;&lt;/div&gt;" style="text;html=1;strokeColor=none;fillColor=none;align=center;verticalAlign=middle;whiteSpace=wrap;rounded=0;fontStyle=1;fontColor=#FFFFFF;" parent="1" vertex="1">
          <mxGeometry x="703.28" y="595" width="142.32" height="30" as="geometry" />
        </mxCell>
        <mxCell id="4QRxjfR1u28q5DTtSrSD-73" value="&lt;div style=&quot;font-size: 15px;&quot;&gt;&lt;font data-darkreader-inline-color=&quot;&quot; style=&quot;font-size: 15px; --darkreader-inline-color: #e8e6e3;&quot;&gt;MySQL&lt;/font&gt;&lt;/div&gt;&lt;div style=&quot;font-size: 15px;&quot;&gt;&lt;font data-darkreader-inline-color=&quot;&quot; style=&quot;font-size: 15px; --darkreader-inline-color: #e8e6e3;&quot;&gt;&amp;nbsp;instances&lt;/font&gt;&lt;/div&gt;" style="text;html=1;strokeColor=none;fillColor=none;align=center;verticalAlign=middle;whiteSpace=wrap;rounded=0;fontStyle=1;fontColor=#FFFFFF;" parent="1" vertex="1">
          <mxGeometry x="645" y="720" width="142.32" height="30" as="geometry" />
        </mxCell>
        <mxCell id="4QRxjfR1u28q5DTtSrSD-76" value="" style="edgeStyle=orthogonalEdgeStyle;rounded=0;orthogonalLoop=1;jettySize=auto;html=1;fontFamily=Tahoma;fontSize=15;fontColor=#FFFFFF;endArrow=none;strokeColor=#FFFFFF;" parent="1" source="4QRxjfR1u28q5DTtSrSD-42" target="4QRxjfR1u28q5DTtSrSD-74" edge="1">
          <mxGeometry relative="1" as="geometry">
            <mxPoint x="1084" y="348" as="sourcePoint" />
            <mxPoint x="1085.0000000000005" y="424" as="targetPoint" />
          </mxGeometry>
        </mxCell>
        <mxCell id="4QRxjfR1u28q5DTtSrSD-74" value="&lt;h3 style=&quot;font-size: 18px;&quot;&gt;&lt;font style=&quot;font-size: 18px;&quot;&gt;&lt;font data-darkreader-inline-color=&quot;&quot; style=&quot;--darkreader-inline-color: #e8e6e3;&quot;&gt;Amazon Route 53&lt;/font&gt;&lt;br&gt;&lt;/font&gt;&lt;/h3&gt;" style="text;html=1;strokeColor=none;fillColor=none;align=center;verticalAlign=middle;whiteSpace=wrap;rounded=0;fontColor=#FFFFFF;" parent="1" vertex="1">
          <mxGeometry x="982.17" y="380" width="203.66" height="30" as="geometry" />
        </mxCell>
        <mxCell id="4QRxjfR1u28q5DTtSrSD-78" value="&lt;h3 style=&quot;font-size: 18px;&quot;&gt;&lt;font style=&quot;font-size: 18px;&quot;&gt;&lt;font data-darkreader-inline-color=&quot;&quot; style=&quot;--darkreader-inline-color: #e8e6e3;&quot;&gt;DNS Private Zones&lt;/font&gt;&lt;br&gt;&lt;/font&gt;&lt;/h3&gt;" style="text;html=1;strokeColor=none;fillColor=none;align=center;verticalAlign=middle;whiteSpace=wrap;rounded=0;fontColor=#FFFFFF;" parent="1" vertex="1">
          <mxGeometry x="982.17" y="510" width="203.66" height="30" as="geometry" />
        </mxCell>
        <mxCell id="zLqFnhN9I1rzCWaggQR7-9" value="" style="edgeStyle=orthogonalEdgeStyle;rounded=0;orthogonalLoop=1;jettySize=auto;html=1;endArrow=none;fontColor=#FFFFFF;strokeColor=#FFFFFF;" parent="1" source="4QRxjfR1u28q5DTtSrSD-1" target="4QRxjfR1u28q5DTtSrSD-2" edge="1">
          <mxGeometry relative="1" as="geometry">
            <mxPoint x="61" y="80" as="sourcePoint" />
            <mxPoint x="61" y="179" as="targetPoint" />
          </mxGeometry>
        </mxCell>
        <mxCell id="UkgWjjfoPncARp1UeeWx-2" value="" style="edgeStyle=orthogonalEdgeStyle;rounded=0;orthogonalLoop=1;jettySize=auto;html=1;labelBorderColor=#FFFFFF;fontColor=#FFFFFF;strokeColor=#FFFFFF;" parent="1" source="4QRxjfR1u28q5DTtSrSD-2" target="4QRxjfR1u28q5DTtSrSD-5" edge="1">
          <mxGeometry relative="1" as="geometry" />
        </mxCell>
        <mxCell id="4QRxjfR1u28q5DTtSrSD-2" value="&lt;h3 style=&quot;font-size: 18px;&quot;&gt;&lt;font data-darkreader-inline-color=&quot;&quot; style=&quot;font-size: 18px; --darkreader-inline-color: #e8e6e3;&quot;&gt;DNS Zones&lt;/font&gt;&lt;/h3&gt;" style="text;html=1;strokeColor=none;fillColor=none;align=center;verticalAlign=middle;whiteSpace=wrap;rounded=0;fontColor=#FFFFFF;" parent="1" vertex="1">
          <mxGeometry x="16" y="100" width="90" height="30" as="geometry" />
        </mxCell>
        <mxCell id="JdfW3q7XRRElJC6JKNPO-2" value="" style="sketch=0;outlineConnect=0;fontColor=#FFFFFF;gradientColor=none;fillColor=#3F8624;strokeColor=none;dashed=0;verticalLabelPosition=bottom;verticalAlign=top;align=center;html=1;fontSize=12;fontStyle=0;aspect=fixed;pointerEvents=1;shape=mxgraph.aws4.bucket;" parent="1" vertex="1">
          <mxGeometry x="1050" y="36.06" width="75" height="78" as="geometry" />
        </mxCell>
        <mxCell id="UkgWjjfoPncARp1UeeWx-1" value="&lt;h3 style=&quot;font-size: 18px;&quot;&gt;&lt;font data-darkreader-inline-color=&quot;&quot; style=&quot;font-size: 18px; --darkreader-inline-color: #e8e6e3;&quot;&gt;&lt;font style=&quot;&quot;&gt;S3&lt;/font&gt;&lt;br&gt;&lt;/font&gt;&lt;/h3&gt;" style="text;html=1;strokeColor=none;fillColor=none;align=center;verticalAlign=middle;whiteSpace=wrap;rounded=0;fontColor=#FFFFFF;" parent="1" vertex="1">
          <mxGeometry x="985.67" y="120" width="203.66" height="30" as="geometry" />
        </mxCell>
      </root>
    </mxGraphModel>
  </diagram>
</mxfile>
